<?xml version="1.0" standalone="no"?>
<!DOCTYPE svg PUBLIC "-//W3C//DTD SVG 20010904//EN"
 "http://www.w3.org/TR/2001/REC-SVG-20010904/DTD/svg10.dtd">
<svg version="1.0" xmlns="http://www.w3.org/2000/svg"
 width="500.000000pt" height="500.000000pt" viewBox="0 0 500.000000 500.000000"
 preserveAspectRatio="xMidYMid meet">

<g transform="translate(0.000000,500.000000) scale(0.100000,-0.100000)"
fill="#000000" stroke="none">
<path d="M0 2500 l0 -2500 2500 0 2500 0 0 2500 0 2500 -2500 0 -2500 0 0
-2500z m2790 2436 c597 -75 1116 -342 1524 -786 340 -370 554 -834 622 -1350
23 -175 15 -535 -15 -705 -91 -512 -321 -962 -671 -1312 -283 -284 -605 -485
-972 -607 -276 -92 -486 -126 -778 -126 -276 0 -490 32 -738 112 -922 295
-1572 1074 -1698 2038 -23 177 -15 536 15 705 94 526 326 971 697 1337 392
387 872 621 1419 693 138 18 455 18 595 1z"/>
<path d="M2411 3338 c-345 -29 -642 -286 -731 -633 -29 -111 -29 -299 0 -410
89 -348 384 -603 733 -633 271 -24 517 64 693 249 162 171 235 354 235 589 0
93 -5 145 -21 205 -79 309 -322 548 -624 614 -110 24 -174 29 -285 19z"/>
</g>
</svg>
